<?xml version="1.0" standalone="no"?><!DOCTYPE svg PUBLIC "-//W3C//DTD SVG 1.1//EN" "http://www.w3.org/Graphics/SVG/1.1/DTD/svg11.dtd"><svg t="1588224609328" class="icon" viewBox="0 0 1024 1024" version="1.1" xmlns="http://www.w3.org/2000/svg" p-id="3383" xmlns:xlink="http://www.w3.org/1999/xlink" width="48" height="48"><defs><style type="text/css"></style></defs><path d="M513.1 141.2c30.3 0 61.2 3.6 91.7 10.8 56.6 13.2 118.8 50.6 170.8 102.6S865 368.9 878.2 425.4c14 60 14.4 119.5 1.1 177-6.3 27.1-15.6 53.5-27.8 78.6-11.9 24.6-26.7 48-43.7 69.5-17.2 21.7-36.9 41.5-58.4 59-21.6 17.5-45.2 32.6-70.1 44.9-25.3 12.5-52 22.1-79.5 28.6-28.3 6.7-57.5 10.1-86.8 10.1-30.3 0-61.2-3.6-91.7-10.8-56.6-13.2-118.8-50.6-170.8-102.6s-89.4-114.3-102.6-170.8c-14-60-14.4-119.5-1.1-177 6.3-27.1 15.6-53.5 27.8-78.6 11.9-24.6 26.7-48 43.7-69.5 17.2-21.7 36.9-41.5 58.4-59 21.6-17.5 45.2-32.6 70.1-44.9 25.3-12.5 52-22.1 79.5-28.6 28.2-6.7 57.4-10.1 86.8-10.1m0-72C230.4 69.3 8.9 331 77.8 625.4c34 145.3 181.9 293.2 327.2 327.2 36.7 8.6 72.9 12.7 108.1 12.7 282.7 0 504.2-261.8 435.3-556.1C914.4 263.9 766.5 116 621.2 82c-36.7-8.7-72.8-12.8-108.1-12.8z" p-id="3384" fill="#f4f680"></path><path d="M302.7 517.2m-50 0a50 50 0 1 0 100 0 50 50 0 1 0-100 0Z" p-id="3385" fill="#f4f680"></path><path d="M513.2 517.2m-50 0a50 50 0 1 0 100 0 50 50 0 1 0-100 0Z" p-id="3386" fill="#f4f680"></path><path d="M721.7 517.2m-50 0a50 50 0 1 0 100 0 50 50 0 1 0-100 0Z" p-id="3387" fill="#f4f680"></path></svg>