<?xml version="1.0" standalone="no"?><!DOCTYPE svg PUBLIC "-//W3C//DTD SVG 1.1//EN" "http://www.w3.org/Graphics/SVG/1.1/DTD/svg11.dtd"><svg t="1588123311840" class="icon" viewBox="0 0 1024 1024" version="1.1" xmlns="http://www.w3.org/2000/svg" p-id="2386" xmlns:xlink="http://www.w3.org/1999/xlink" width="48" height="48"><defs><style type="text/css"></style></defs><path d="M616.311467 401.885867c81.7664 58.077867 278.4768 200.96 265.7792 222.941866-12.663467 21.930667-233.728-76.4416-325.307734-118.391466l28.5696 485.563733S569.344 1024 521.352533 1024s-64-32-64-32l28.5696-485.563733c-91.579733 41.949867-312.644267 140.3392-325.307733 118.391466-12.6976-21.998933 184.0128-164.881067 265.7792-222.941866a95.982933 95.982933 0 1 0 189.952 0z m-34.833067-60.7232C572.040533 241.015467 546.679467 0 521.335467 0s-50.705067 241.032533-60.142934 341.162667c16.452267-13.243733 37.376-21.162667 60.142934-21.162667s43.690667 7.918933 60.142933 21.162667z m-60.142933 138.837333a64 64 0 1 0 0-128 64 64 0 0 0 0 128z" p-id="2387" fill="#eeb174"></path></svg>