<?xml version="1.0" standalone="no"?><!DOCTYPE svg PUBLIC "-//W3C//DTD SVG 1.1//EN" "http://www.w3.org/Graphics/SVG/1.1/DTD/svg11.dtd"><svg class="icon" width="48px" height="48.00px" viewBox="0 0 1024 1024" version="1.1" xmlns="http://www.w3.org/2000/svg"><path fill="#eeb174" d="M614.4 1024h-204.8c-3.413333 0-10.24-3.413333-13.653333-6.826667-3.413333-3.413333-3.413333-10.24-3.413334-13.653333l68.266667-409.6c0-6.826667 6.826667-13.653333 17.066667-13.653333h68.266666c6.826667 0 17.066667 6.826667 17.066667 13.653333l68.266667 409.6c0 3.413333 0 10.24-3.413334 13.653333-3.413333 3.413333-10.24 6.826667-13.653333 6.826667z m-184.32-34.133333h163.84l-61.44-375.466667h-40.96l-61.44 375.466667zM512 409.6c-47.786667 0-85.333333-37.546667-85.333333-85.333333 0-20.48 17.066667-119.466667 51.2-296.96 3.413333-13.653333 17.066667-27.306667 34.133333-27.306667s30.72 10.24 34.133333 27.306667c34.133333 174.08 51.2 273.066667 51.2 293.546666 0 51.2-37.546667 88.746667-85.333333 88.746667z m0-375.466667c-47.786667 235.52-51.2 279.893333-51.2 286.72 0 27.306667 23.893333 51.2 51.2 51.2s51.2-23.893333 51.2-51.2c0-6.826667-3.413333-51.2-51.2-286.72zM143.36 706.56c-10.24 0-23.893333-6.826667-30.72-17.066667-6.826667-13.653333-6.826667-30.72 6.826667-44.373333 133.12-116.053333 211.626667-180.906667 228.693333-191.146667 20.48-10.24 44.373333-13.653333 64.853333-10.24 20.48 6.826667 40.96 20.48 51.2 40.96 10.24 20.48 13.653333 44.373333 6.826667 64.853334-6.826667 20.48-20.48 40.96-40.96 51.2-17.066667 10.24-112.64 44.373333-279.893333 102.4 0 3.413333-3.413333 3.413333-6.826667 3.413333z m249.173333-228.693333c-10.24 0-17.066667 3.413333-23.893333 6.826666-6.826667 3.413333-44.373333 30.72-225.28 187.733334 225.28-78.506667 266.24-95.573333 276.48-98.986667 10.24-6.826667 20.48-17.066667 23.893333-30.72s3.413333-27.306667-3.413333-37.546667-17.066667-20.48-30.72-23.893333c-6.826667-3.413333-10.24-3.413333-17.066667-3.413333zM880.64 706.56c-3.413333 0-6.826667 0-10.24-3.413333-167.253333-58.026667-262.826667-92.16-279.893333-102.4-20.48-10.24-34.133333-30.72-40.96-51.2-6.826667-20.48-3.413333-44.373333 10.24-64.853334 10.24-20.48 30.72-34.133333 51.2-40.96 20.48-6.826667 44.373333-3.413333 64.853333 10.24 17.066667 10.24 95.573333 75.093333 228.693333 191.146667 13.653333 10.24 13.653333 27.306667 6.826667 44.373333-6.826667 10.24-20.48 17.066667-30.72 17.066667z m-276.48-133.12c6.826667 3.413333 47.786667 23.893333 276.48 98.986667-180.906667-157.013333-218.453333-184.32-225.28-187.733334-10.24-6.826667-27.306667-10.24-37.546667-6.826666-13.653333 3.413333-23.893333 13.653333-30.72 23.893333-6.826667 10.24-10.24 27.306667-6.826666 37.546667s13.653333 27.306667 23.893333 34.133333z"  /><path fill="#eeb174" d="M512 546.133333c-47.786667 0-85.333333-37.546667-85.333333-85.333333S464.213333 375.466667 512 375.466667s85.333333 37.546667 85.333333 85.333333S559.786667 546.133333 512 546.133333z m0-136.533333c-27.306667 0-51.2 23.893333-51.2 51.2S484.693333 512 512 512s51.2-23.893333 51.2-51.2S539.306667 409.6 512 409.6z"  /></svg>